<svg width="16" height="16" viewBox="0 0 16 16" fill="none" xmlns="http://www.w3.org/2000/svg">
<path d="M14.6668 7.66667V9.73333C14.6668 11.2268 14.6668 11.9735 14.3762 12.544C14.1205 13.0457 13.7126 13.4537 13.2108 13.7094C12.6404 14 11.8936 14 10.4002 14H5.60016C4.10669 14 3.35995 14 2.78952 13.7094C2.28776 13.4537 1.87981 13.0457 1.62415 12.544C1.3335 11.9735 1.3335 11.2268 1.3335 9.73333V6.26667C1.3335 4.77319 1.3335 4.02646 1.62415 3.45603C1.87981 2.95426 2.28776 2.54631 2.78952 2.29065C3.35995 2 4.10669 2 5.60016 2H8.3335M10.667 3.33333L12.0003 4.66667L14.667 2M10.6668 8C10.6668 9.47276 9.47292 10.6667 8.00016 10.6667C6.5274 10.6667 5.3335 9.47276 5.3335 8C5.3335 6.52724 6.5274 5.33333 8.00016 5.33333C9.47292 5.33333 10.6668 6.52724 10.6668 8Z" stroke="black" stroke-width="1.5" stroke-linecap="round" stroke-linejoin="round"/>
</svg>
