<svg width="11" height="7" viewBox="0 0 11 7" fill="none" xmlns="http://www.w3.org/2000/svg">
<path d="M10.0915 0.451972L10.0867 0.446075L10.0813 0.440568C9.90076 0.253564 9.61034 0.253146 9.42927 0.439309L4.16201 5.72962L1.58507 3.13469C1.40401 2.94841 1.11351 2.94879 0.932892 3.13584C0.755703 3.31933 0.755703 3.60875 0.932892 3.79224L0.932878 3.79225L0.934851 3.79424L3.58046 6.45832C3.73676 6.61955 3.94983 6.7 4.1473 6.7C4.36196 6.7 4.55963 6.61773 4.71406 6.4584L10.0468 1.10234C10.2436 0.919903 10.2421 0.633904 10.0915 0.451972ZM4.2327 5.80081L4.2317 5.7998C4.23206 5.80015 4.23237 5.80049 4.23269 5.80082L4.2327 5.80081Z" fill="white" stroke="white" stroke-width="0.4"/>
</svg>
