<svg width="16" height="16" viewBox="0 0 16 16" fill="none" xmlns="http://www.w3.org/2000/svg">
<path d="M14.6668 5.95429V10.0458C14.6668 10.4497 14.6668 10.6516 14.587 10.7451C14.5177 10.8263 14.4137 10.8693 14.3073 10.8609C14.1847 10.8513 14.042 10.7085 13.7564 10.4229L11.3335 8.00004V9.46671C11.3335 10.5868 11.3335 11.1469 11.1155 11.5747C10.9238 11.951 10.6178 12.257 10.2415 12.4487C9.81365 12.6667 9.2536 12.6667 8.1335 12.6667H4.5335C3.41339 12.6667 2.85334 12.6667 2.42552 12.4487C2.04919 12.257 1.74323 11.951 1.55148 11.5747C1.3335 11.1469 1.3335 10.5868 1.3335 9.46671V6.53337C1.3335 5.41327 1.3335 4.85322 1.55148 4.42539C1.74323 4.04907 2.04919 3.74311 2.42552 3.55136C2.85334 3.33337 3.41339 3.33337 4.5335 3.33337H8.1335" stroke="#111827" stroke-width="1.5" stroke-linecap="round" stroke-linejoin="round"/>
<path d="M10.667 3.33333L12.0003 4.66667L14.667 2" stroke="#111827" stroke-width="1.5" stroke-linecap="round" stroke-linejoin="round"/>
</svg>
